<svg xmlns="http://www.w3.org/2000/svg" width="422" height="35" viewBox="0 0 422 35" fill="none"><g clip-path="url(#clip0_82_11)"><g opacity="0.5"><path fill-rule="evenodd" clip-rule="evenodd" d="M25.1088 26.8506C25.016 26.7035 24.9943 14.3283 25.0865 14.0868C25.1391 13.9487 25.3275 13.9303 26.4476 13.9542L27.7475 13.9819L27.7741 16.2494L27.8007 18.5173L28.2511 18.1715C29.5182 17.1986 31.6319 17.2408 32.4008 18.2543C32.9697 19.0044 32.9849 19.1323 32.9897 23.1894L32.9939 26.9221H31.6576H30.3212L30.2717 23.6155C30.2305 20.8595 30.2326 20.2087 29.9227 19.9714C29.8148 19.8888 29.6691 19.8563 29.4705 19.8025C29.1292 19.7101 28.9789 19.7187 28.6357 19.8505C28.4155 19.9351 28.2572 19.9859 28.1422 20.0868C27.831 20.3599 27.8377 21.0003 27.797 23.6725L27.7475 26.9221L26.4683 26.9501C25.5115 26.971 25.169 26.946 25.1088 26.8506ZM45.0707 16.4634C45.2885 15.8077 45.5039 15.2144 45.5493 15.1449C45.6065 15.0575 45.8504 15.0277 46.3412 15.0478L47.0505 15.0769L47.0782 16.3425L47.1058 17.6083L48.1176 17.6365L49.1292 17.6649L49.1573 18.7846L49.1853 19.9045H48.1426H47.1V22.0754C47.1 23.7771 47.1299 24.2873 47.2382 24.4365C47.3503 24.5906 47.5428 24.6367 48.2529 24.6795L49.1292 24.7323V25.7182V26.7041L48.5848 26.8975C47.7801 27.1833 46.5152 27.1767 45.8495 26.883C45.2298 26.6096 44.9049 26.2815 44.6066 25.6281C44.3914 25.1567 44.3776 24.9927 44.3454 22.5175L44.3112 19.9045H43.7258H43.1404V19.0117V18.1188L43.9075 17.8872L44.6747 17.6557L45.0707 16.4634ZM82.9317 16.4206C83.1076 15.8458 83.2941 15.2951 83.3461 15.197C83.426 15.0462 83.5509 15.0231 84.1526 15.0477L84.8645 15.0769L84.8922 16.3425L84.9198 17.6083L85.9316 17.6365L86.9433 17.6649L86.9712 18.7811L86.9992 19.8975L85.9813 19.926L84.9635 19.9543L84.9369 22.1106L84.9101 24.2669L85.1729 24.4747C85.3889 24.6456 85.5745 24.6825 86.2177 24.6825H86.9997L86.9715 25.6964L86.9433 26.7102L86.3988 26.9063C85.6935 27.1601 84.3453 27.174 83.781 26.9333C83.1675 26.6716 82.7759 26.3201 82.5236 25.8049C82.3011 25.3505 82.2886 25.2103 82.2413 22.6419L82.1918 19.9543L81.5978 19.9045L81.0039 19.8548L80.9748 19.0738C80.9584 18.6324 80.9906 18.2387 81.0489 18.168C81.1058 18.0992 81.4401 17.9645 81.7919 17.8688C82.1437 17.773 82.4721 17.6432 82.5217 17.5803C82.5714 17.5173 82.7558 16.9955 82.9317 16.4206ZM34.9219 18.9283C35.4617 18.1789 36.3992 17.6766 37.5475 17.5216C37.9599 17.4658 38.1647 17.437 38.3697 17.4351C38.5889 17.433 38.8084 17.4617 39.2824 17.5209C41.7291 17.8265 42.8404 19.3174 42.8404 22.2935C42.8404 25.2979 41.7343 26.7745 39.2555 27.0794C37.1718 27.3357 35.433 26.6594 34.7014 25.3077C33.7595 23.5674 33.8693 20.3893 34.9219 18.9283ZM53.6211 18.3746C53.9578 18.0143 54.7347 17.6277 55.3275 17.5255C56.6431 17.2988 57.8343 17.7549 58.1916 18.6222C58.2566 18.7801 58.3268 18.9092 58.3476 18.9092C58.3683 18.9092 58.5494 18.7264 58.7499 18.5031C59.2154 17.9851 59.8764 17.6496 60.688 17.5192C62.2506 17.2681 63.3318 17.8994 63.6783 19.265C63.8054 19.7661 63.8273 20.4742 63.8057 23.3959L63.7797 26.9221H62.4433H61.107L61.0575 23.5875C61.0303 21.7535 60.9753 20.2024 60.9353 20.1407C60.8291 19.9763 60.222 19.7055 59.9602 19.7055C59.6315 19.7055 58.953 20.0617 58.7807 20.3247C58.6594 20.5101 58.6232 21.1336 58.5828 23.7368L58.5333 26.9221L57.2216 26.9499L55.91 26.9777V23.7845C55.91 21.1839 55.8833 20.5394 55.7659 20.3112C55.6138 20.0153 55.0832 19.7055 54.7288 19.7055C54.3824 19.7055 53.8789 19.9616 53.6499 20.2543C53.4402 20.5223 53.4353 20.6004 53.4338 23.6258C53.4329 25.3292 53.3961 26.7805 53.3517 26.8506C53.2916 26.946 52.9491 26.971 51.9922 26.9501L50.7131 26.9221V22.2935V17.6649H51.901H53.0888L53.2448 18.1376L53.4009 18.6104L53.6211 18.3746ZM65.4873 17.9305C65.7265 17.8064 66.7824 17.6198 67.7888 17.5236C69.0009 17.4078 69.0369 17.4077 70.016 17.5188C71.5234 17.6898 72.3223 18.2528 72.6278 19.359C72.6984 19.6146 72.7374 21.0362 72.7377 23.3636L72.7383 26.9719H71.4988C70.6741 26.9719 70.3847 26.9855 70.2375 26.8464C70.1433 26.7574 70.1074 26.606 70.0267 26.3485C69.9785 26.1946 69.916 26.2158 69.5197 26.5199C68.9569 26.9519 68.444 27.0995 67.4892 27.1044C66.8484 27.1076 66.6695 27.0673 66.21 26.816C65.2284 26.2794 64.7753 25.3363 64.834 23.952C64.8788 22.8926 65.169 22.2817 65.8451 21.8233C66.5238 21.3632 66.8647 21.2883 68.556 21.2268L70.0655 21.1719V20.8093C70.0655 19.9646 69.5531 19.7904 67.1268 19.81C66.2443 19.8172 65.4752 19.7939 65.418 19.7583C65.3587 19.7215 65.314 19.3341 65.314 18.8569C65.314 18.1606 65.3431 18.0052 65.4873 17.9305ZM77.3772 18.5216C77.9201 17.947 78.4765 17.6445 79.1941 17.5336C79.4817 17.4892 79.774 17.4723 79.8434 17.4959C79.9397 17.5286 79.9633 17.8639 79.9424 18.896L79.915 20.2529L79.0241 20.3089C78.0084 20.3727 77.4857 20.5622 77.2253 20.9616C77.0639 21.2088 77.039 21.5475 76.9948 24.0806L76.9453 26.9221H75.609H74.2726V22.2935V17.6649L75.437 17.6368C76.1616 17.6194 76.4724 17.601 76.6293 17.7486C76.7586 17.8702 76.7835 18.1043 76.8491 18.5443L76.9181 19.0073L77.3772 18.5216ZM39.9151 22.294C39.9115 20.8437 39.724 20.2368 39.1944 19.9614C38.8721 19.7939 38.1752 19.7637 37.8333 19.9026C37.2719 20.1307 37.003 20.9328 37.003 22.3799C37.003 24.0574 37.4319 24.7833 38.4212 24.7804C39.1189 24.7784 39.3855 24.6201 39.6732 24.036C39.895 23.5857 39.9178 23.4214 39.9151 22.294ZM68.783 25.0577C69.587 24.9799 70.0655 24.3769 70.0655 23.4413V22.9903L69.1004 22.9966C68.5696 23.0001 68.0374 23.0426 67.9177 23.091C67.6586 23.196 67.3928 23.6742 67.3928 24.0355C67.3928 24.7398 67.9365 25.1395 68.783 25.0577Z" fill="#1B1D36" fill-opacity="0.7"></path><path fill-rule="evenodd" clip-rule="evenodd" d="M10.5236 3.86922C8.90601 4.63051 7.64607 6.0393 6.66954 8.17882C6.4871 8.57847 6.08768 9.59697 5.7819 10.4422C5.11639 12.2821 5.01344 12.4622 4.65223 12.4202C4.40664 12.3918 4.38397 12.3501 4.35675 11.8779C4.33784 11.5512 4.40218 11.1426 4.53493 10.7465C4.87456 9.73264 4.7531 9.79237 3.68619 11.1638C2.60364 12.5555 1.44002 14.7844 0.819648 16.6546C-0.330215 20.1211 -0.268643 23.3862 0.994266 25.9268C2.29539 28.5442 4.68618 30.5407 7.36841 31.2501C9.20803 31.7366 10.8469 31.7356 12.6984 31.2472C15.3105 30.5579 17.6806 28.6287 18.9276 26.1766C19.8515 24.3597 20.1236 23.0177 20.0478 20.6512C19.9885 18.8007 19.7098 17.3061 19.0837 15.4801C18.476 13.7079 17.3639 11.4437 17.1012 11.4437C17.0516 11.4437 17.0385 11.6436 17.0719 11.8891C17.1549 12.498 16.937 12.8373 16.463 12.8373C15.9981 12.8373 15.8684 12.6078 15.6171 11.3397C15.3335 9.90933 14.9164 9.06652 14.1029 8.28105C13.4094 7.61144 13.0797 7.47079 13.2483 7.91653C13.3013 8.05698 13.3448 8.4636 13.3448 8.82006C13.3448 9.40874 13.3173 9.49594 13.0454 9.76937C12.8054 10.0106 12.6935 10.0572 12.4822 10.004C12.068 9.89947 11.7107 9.59637 11.3677 9.05905C10.4399 7.60497 10.3326 5.94484 11.0573 4.25066C11.3823 3.49077 11.3607 3.47534 10.5236 3.86922ZM13.2533 18.2061C12.5733 17.5236 12.0147 17.1939 11.1417 16.9603C9.67575 16.5678 8.0838 16.9868 6.9183 18.0718C4.51127 20.3128 5.1159 24.2436 8.08588 25.6619C8.75753 25.9826 8.94264 26.0255 9.80731 26.0604C10.6044 26.0926 10.894 26.0612 11.4417 25.8835C13.235 25.3017 14.4865 23.6796 14.6075 21.7807C14.6979 20.3613 14.2667 19.2233 13.2533 18.2061Z" fill="#1B1D36"></path><path fill-rule="evenodd" clip-rule="evenodd" d="M141.87 16.8376C141.78 16.943 141.7 17.0604 141.631 17.1899C141.464 17.5005 141.38 17.8652 141.38 18.2842C141.38 18.7082 141.464 19.0779 141.631 19.3934C141.671 19.4687 141.715 19.5398 141.762 19.607C140.75 27.9972 133.606 34.4992 124.942 34.4992C115.585 34.4992 108 26.9138 108 17.5567C108 8.19966 115.585 0.614258 124.942 0.614258C134.059 0.614258 141.493 7.8141 141.87 16.8376ZM132.415 19.2085V16.8202H133.472V16.2656H132.415V15.2452H131.742V16.2656H131.217V16.8202H131.742V19.2085C131.742 19.6029 131.836 19.8863 132.023 20.0589C132.21 20.2314 132.491 20.3177 132.866 20.3177H133.472V19.7483H132.977C132.77 19.7483 132.624 19.7089 132.541 19.63C132.457 19.5462 132.415 19.4057 132.415 19.2085ZM120.832 16.3913C120.585 16.2582 120.304 16.1917 119.989 16.1917C119.668 16.1917 119.377 16.2705 119.116 16.4283C118.855 16.586 118.668 16.8079 118.554 17.0938C118.426 16.798 118.231 16.5737 117.97 16.4209C117.709 16.2681 117.408 16.1917 117.068 16.1917C116.797 16.1917 116.548 16.2484 116.321 16.3617C116.099 16.4751 115.922 16.6378 115.789 16.8498V16.2656H115.116V20.3177H115.789V18.0846C115.789 17.6607 115.892 17.3378 116.099 17.116C116.306 16.8892 116.585 16.7758 116.935 16.7758C117.275 16.7758 117.544 16.8843 117.741 17.1012C117.943 17.3131 118.044 17.6212 118.044 18.0254V20.3177H118.71V18.0846C118.71 17.6607 118.813 17.3378 119.02 17.116C119.227 16.8892 119.506 16.7758 119.856 16.7758C120.196 16.7758 120.464 16.8843 120.662 17.1012C120.864 17.3131 120.965 17.6212 120.965 18.0254V20.3177H121.63V17.9293C121.63 17.5547 121.559 17.2367 121.416 16.9755C121.273 16.7142 121.078 16.5195 120.832 16.3913ZM122.734 17.1899C122.566 17.5005 122.483 17.8628 122.483 18.2769C122.483 18.686 122.566 19.0508 122.734 19.3712C122.902 19.6916 123.131 19.9406 123.422 20.118C123.713 20.2955 124.038 20.3842 124.398 20.3842C124.748 20.3842 125.053 20.3078 125.315 20.155C125.581 19.9973 125.78 19.8001 125.914 19.5635V20.3177H126.594V16.2656H125.914V17.005C125.785 16.7734 125.591 16.5811 125.329 16.4283C125.068 16.2755 124.76 16.1991 124.405 16.1991C124.045 16.1991 123.717 16.2853 123.422 16.4579C123.131 16.6304 122.902 16.8744 122.734 17.1899ZM125.729 17.4857C125.852 17.7124 125.914 17.9786 125.914 18.2842C125.914 18.5899 125.852 18.8585 125.729 19.0902C125.605 19.317 125.438 19.492 125.226 19.6152C125.019 19.7335 124.79 19.7927 124.538 19.7927C124.287 19.7927 124.058 19.7335 123.851 19.6152C123.644 19.492 123.478 19.317 123.355 19.0902C123.232 18.8585 123.17 18.5874 123.17 18.2769C123.17 17.9712 123.232 17.705 123.355 17.4783C123.478 17.2515 123.644 17.079 123.851 16.9607C124.058 16.8424 124.287 16.7832 124.538 16.7832C124.79 16.7832 125.019 16.8448 125.226 16.9681C125.438 17.0864 125.605 17.2589 125.729 17.4857ZM129.165 20.3842C128.855 20.3842 128.576 20.3325 128.33 20.2289C128.083 20.1205 127.889 19.9726 127.746 19.7853C127.603 19.593 127.524 19.3737 127.509 19.1272H128.204C128.224 19.3293 128.318 19.4944 128.485 19.6226C128.658 19.7508 128.882 19.8149 129.158 19.8149C129.414 19.8149 129.616 19.7582 129.764 19.6448C129.912 19.5314 129.986 19.3885 129.986 19.2159C129.986 19.0385 129.907 18.9078 129.75 18.824C129.592 18.7353 129.348 18.649 129.018 18.5652C128.717 18.4864 128.47 18.4075 128.278 18.3286C128.091 18.2448 127.928 18.124 127.79 17.9663C127.657 17.8036 127.59 17.5917 127.59 17.3304C127.59 17.1233 127.652 16.9336 127.775 16.761C127.899 16.5885 128.074 16.4529 128.3 16.3543C128.527 16.2508 128.786 16.1991 129.077 16.1991C129.525 16.1991 129.888 16.3124 130.164 16.5392C130.44 16.766 130.588 17.0765 130.607 17.4709H129.934C129.92 17.2589 129.833 17.0888 129.676 16.9607C129.523 16.8325 129.316 16.7684 129.054 16.7684C128.813 16.7684 128.621 16.8202 128.478 16.9237C128.335 17.0272 128.263 17.1628 128.263 17.3304C128.263 17.4635 128.305 17.5744 128.389 17.6631C128.478 17.7469 128.586 17.8159 128.714 17.8702C128.847 17.9195 129.03 17.9762 129.262 18.0402C129.552 18.1191 129.789 18.198 129.971 18.2769C130.154 18.3508 130.309 18.4642 130.437 18.617C130.57 18.7698 130.639 18.9694 130.644 19.2159C130.644 19.4378 130.583 19.6374 130.459 19.8149C130.336 19.9923 130.161 20.1328 129.934 20.2363C129.713 20.3349 129.456 20.3842 129.165 20.3842ZM137.985 18.1364C137.985 18.2645 137.977 18.4001 137.962 18.543H134.724C134.748 18.9423 134.884 19.2554 135.13 19.4821C135.382 19.7039 135.685 19.8149 136.04 19.8149C136.331 19.8149 136.572 19.7483 136.765 19.6152C136.962 19.4772 137.1 19.2948 137.179 19.068H137.903C137.795 19.4575 137.578 19.7754 137.253 20.0219C136.927 20.2634 136.523 20.3842 136.04 20.3842C135.655 20.3842 135.31 20.298 135.005 20.1254C134.704 19.9529 134.467 19.7089 134.295 19.3934C134.122 19.073 134.036 18.7033 134.036 18.2842C134.036 17.8652 134.12 17.498 134.288 17.1825C134.455 16.867 134.689 16.6255 134.99 16.4579C135.296 16.2853 135.646 16.1991 136.04 16.1991C136.424 16.1991 136.765 16.2829 137.06 16.4505C137.356 16.6181 137.583 16.8498 137.741 17.1455C137.903 17.4364 137.985 17.7667 137.985 18.1364ZM137.29 17.9959C137.29 17.7395 137.233 17.5202 137.12 17.3378C137.006 17.1505 136.851 17.01 136.654 16.9163C136.461 16.8177 136.247 16.7684 136.01 16.7684C135.67 16.7684 135.379 16.8769 135.138 17.0938C134.901 17.3107 134.766 17.6114 134.731 17.9959H137.29ZM140.049 16.3839C139.832 16.5121 139.664 16.692 139.546 16.9237V16.2656H138.873V20.3177H139.546V18.1142C139.546 17.2959 139.923 16.8867 140.677 16.8867H140.855V16.1917C140.539 16.1917 140.27 16.2558 140.049 16.3839Z" fill="#1B1D36" fill-opacity="0.7"></path><path fill-rule="evenodd" clip-rule="evenodd" d="M131.398 16.8202C131.387 17.0644 131.382 17.31 131.382 17.5567C131.382 26.9138 138.967 34.4992 148.324 34.4992C157.681 34.4992 165.267 26.9138 165.267 17.5567C165.267 8.19966 157.681 0.614257 148.324 0.614258C139.402 0.614259 132.09 7.51177 131.43 16.2657H131.742V15.2453H132.415V16.2657H133.472V16.8202H132.415V19.2086C132.415 19.4058 132.457 19.5463 132.541 19.6301C132.624 19.7089 132.77 19.7484 132.977 19.7484H133.472V20.3177H132.866C132.491 20.3177 132.21 20.2315 132.023 20.0589C131.836 19.8864 131.742 19.6029 131.742 19.2086V16.8202H131.398ZM153.878 17.19C153.71 17.5005 153.627 17.8628 153.627 18.2769C153.627 18.6861 153.71 19.0508 153.878 19.3713C154.046 19.6917 154.275 19.9406 154.566 20.1181C154.862 20.2955 155.189 20.3843 155.549 20.3843C155.899 20.3843 156.205 20.3079 156.466 20.155C156.727 19.9973 156.925 19.7977 157.058 19.5561V20.3177H157.738V14.846H157.058V16.9903C156.915 16.7537 156.708 16.5639 156.437 16.4209C156.165 16.2731 155.872 16.1991 155.557 16.1991C155.192 16.1991 154.862 16.2854 154.566 16.4579C154.275 16.6305 154.046 16.8745 153.878 17.19ZM156.873 17.4857C156.996 17.7125 157.058 17.9787 157.058 18.2843C157.058 18.5899 156.996 18.8586 156.873 19.0903C156.75 19.317 156.582 19.492 156.37 19.6153C156.163 19.7336 155.934 19.7927 155.682 19.7927C155.431 19.7927 155.202 19.7336 154.995 19.6153C154.788 19.492 154.622 19.317 154.499 19.0903C154.376 18.8586 154.314 18.5875 154.314 18.2769C154.314 17.9713 154.376 17.7051 154.499 17.4783C154.622 17.2516 154.788 17.079 154.995 16.9607C155.202 16.8424 155.431 16.7833 155.682 16.7833C155.934 16.7833 156.163 16.8449 156.37 16.9681C156.582 17.0864 156.75 17.259 156.873 17.4857ZM137.985 18.1364C137.985 18.2646 137.977 18.4001 137.963 18.5431H134.724C134.749 18.9424 134.884 19.2554 135.131 19.4822C135.382 19.704 135.685 19.8149 136.04 19.8149C136.331 19.8149 136.572 19.7484 136.765 19.6153C136.962 19.4772 137.1 19.2948 137.179 19.0681H137.903C137.795 19.4575 137.578 19.7755 137.253 20.022C136.927 20.2635 136.523 20.3843 136.04 20.3843C135.656 20.3843 135.311 20.298 135.005 20.1255C134.704 19.9529 134.468 19.7089 134.295 19.3934C134.122 19.073 134.036 18.7033 134.036 18.2843C134.036 17.8653 134.12 17.498 134.288 17.1826C134.455 16.8671 134.689 16.6255 134.99 16.4579C135.296 16.2854 135.646 16.1991 136.04 16.1991C136.425 16.1991 136.765 16.2829 137.06 16.4505C137.356 16.6181 137.583 16.8498 137.741 17.1456C137.903 17.4364 137.985 17.7667 137.985 18.1364ZM137.29 17.9959C137.29 17.7396 137.233 17.5202 137.12 17.3378C137.006 17.1505 136.851 17.01 136.654 16.9164C136.462 16.8178 136.247 16.7685 136.01 16.7685C135.67 16.7685 135.38 16.8769 135.138 17.0938C134.901 17.3107 134.766 17.6114 134.731 17.9959H137.29ZM140.049 16.384C139.832 16.5121 139.664 16.6921 139.546 16.9238V16.2657H138.873V20.3177H139.546V18.1142C139.546 17.2959 139.923 16.8868 140.677 16.8868H140.855V16.1917C140.539 16.1917 140.27 16.2558 140.049 16.384ZM141.38 18.2843C141.38 17.8653 141.464 17.5005 141.631 17.19C141.799 16.8745 142.031 16.6305 142.326 16.4579C142.627 16.2854 142.97 16.1991 143.354 16.1991C143.852 16.1991 144.261 16.3199 144.582 16.5614C144.907 16.803 145.121 17.1382 145.225 17.5671H144.5C144.431 17.3206 144.296 17.1259 144.094 16.9829C143.896 16.84 143.65 16.7685 143.354 16.7685C142.97 16.7685 142.659 16.9016 142.423 17.1678C142.186 17.429 142.068 17.8012 142.068 18.2843C142.068 18.7723 142.186 19.1494 142.423 19.4156C142.659 19.6818 142.97 19.8149 143.354 19.8149C143.65 19.8149 143.896 19.7459 144.094 19.6079C144.291 19.4698 144.426 19.2727 144.5 19.0163H145.225C145.117 19.4304 144.9 19.7632 144.574 20.0146C144.249 20.261 143.842 20.3843 143.354 20.3843C142.97 20.3843 142.627 20.298 142.326 20.1255C142.031 19.9529 141.799 19.7089 141.631 19.3934C141.464 19.078 141.38 18.7082 141.38 18.2843ZM146.123 17.19C145.955 17.5005 145.871 17.8628 145.871 18.2769C145.871 18.6861 145.955 19.0508 146.123 19.3713C146.29 19.6917 146.52 19.9406 146.81 20.1181C147.101 20.2955 147.427 20.3843 147.786 20.3843C148.136 20.3843 148.442 20.3079 148.703 20.155C148.97 19.9973 149.169 19.8001 149.302 19.5635V20.3177H149.983V16.2657H149.302V17.0051C149.174 16.7734 148.979 16.5812 148.718 16.4283C148.457 16.2755 148.149 16.1991 147.794 16.1991C147.434 16.1991 147.106 16.2854 146.81 16.4579C146.52 16.6305 146.29 16.8745 146.123 17.19ZM149.117 17.4857C149.241 17.7125 149.302 17.9787 149.302 18.2843C149.302 18.5899 149.241 18.8586 149.117 19.0903C148.994 19.317 148.827 19.492 148.615 19.6153C148.408 19.7336 148.178 19.7927 147.927 19.7927C147.676 19.7927 147.446 19.7336 147.239 19.6153C147.032 19.492 146.867 19.317 146.744 19.0903C146.621 18.8586 146.559 18.5875 146.559 18.2769C146.559 17.9713 146.621 17.7051 146.744 17.4783C146.867 17.2516 147.032 17.079 147.239 16.9607C147.446 16.8424 147.676 16.7833 147.927 16.7833C148.178 16.7833 148.408 16.8449 148.615 16.9681C148.827 17.0864 148.994 17.259 149.117 17.4857ZM151.793 16.9238C151.911 16.6921 152.078 16.5121 152.295 16.384C152.517 16.2558 152.786 16.1917 153.101 16.1917V16.8868H152.924C152.17 16.8868 151.793 17.2959 151.793 18.1142V20.3177H151.12V16.2657H151.793V16.9238Z" fill="#1B1D36" fill-opacity="0.5"></path><path fill-rule="evenodd" clip-rule="evenodd" d="M227.578 7.61647C225.266 7.71215 223.274 8.36222 221.821 9.49496C221.549 9.70722 221.031 10.2104 220.83 10.4573C220.14 11.3065 219.743 12.2572 219.598 13.4065C219.569 13.6395 219.569 14.4593 219.599 14.6646C219.797 16.045 220.553 17.1136 222.036 18.1102C222.53 18.4421 222.92 18.6667 224.041 19.2643C224.458 19.487 224.901 19.7281 225.025 19.8001C226 20.3663 226.462 20.8147 226.613 21.339C226.663 21.5161 226.663 21.7881 226.612 21.9762C226.45 22.5708 225.89 23.0653 225.067 23.3386C224.617 23.4879 224.139 23.562 223.54 23.5752C222.099 23.607 220.422 23.2502 218.988 22.6068C218.775 22.5114 218.464 22.3555 218.421 22.3227C218.409 22.3138 218.395 22.3106 218.39 22.3157C218.371 22.3345 217.465 26.5321 217.477 26.5435C217.502 26.5657 217.881 26.7056 218.204 26.8116C219.281 27.1652 220.522 27.4239 221.688 27.5382C222.692 27.6366 223.747 27.6396 224.675 27.5465C227.531 27.2601 229.813 26.0921 231.008 24.3045C231.687 23.2892 232.011 22.1285 231.979 20.8325C231.966 20.3146 231.905 19.9348 231.765 19.5072C231.365 18.2824 230.474 17.2961 228.913 16.352C228.557 16.1366 228.134 15.9038 227.403 15.522C226.577 15.0903 226.266 14.9163 225.943 14.7055C225.628 14.4996 225.457 14.3663 225.291 14.1956C225 13.8975 224.874 13.6291 224.874 13.3085C224.875 12.5982 225.585 11.9899 226.694 11.7505C227.297 11.6203 228.117 11.6019 228.947 11.7C229.897 11.8124 230.99 12.104 231.818 12.4661C231.931 12.5156 232.025 12.5542 232.028 12.5518C232.03 12.5494 232.232 11.6434 232.476 10.5384C232.72 9.43344 232.923 8.51646 232.928 8.50068C232.939 8.46596 232.89 8.44355 232.543 8.32621C231.539 7.98669 230.298 7.73984 229.172 7.65584C229.043 7.64627 228.893 7.6348 228.838 7.63037C228.712 7.62021 227.745 7.60954 227.578 7.61647ZM187.103 7.93708C187.092 7.96971 186.995 8.52732 187 8.53213C187.003 8.53453 187.117 8.55927 187.254 8.58712C188.323 8.80415 189.427 9.11737 190.397 9.47852C191.249 9.79599 191.556 9.92286 191.851 10.0781C192.38 10.3571 192.73 10.6872 192.924 11.0903C193.083 11.4207 193.074 11.3862 193.979 14.8116C194.351 16.218 194.685 17.479 194.721 17.6138C194.785 17.8566 196.251 23.3966 196.405 23.9777C196.449 24.144 196.664 24.9582 196.884 25.7872L197.282 27.2944L199.969 27.2945H202.656L206.786 17.6199C209.057 12.2989 210.918 7.93888 210.921 7.93099C210.925 7.9228 209.778 7.91666 208.249 7.91666H205.571L205.543 7.9861C205.527 8.02428 204.335 10.9781 202.894 14.5502C201.453 18.1223 200.268 21.0559 200.26 21.0694C200.25 21.0867 200.245 21.0877 200.245 21.0728C200.244 21.0309 198.074 9.86477 198.033 9.6915C197.879 9.03571 197.465 8.50497 196.873 8.20355C196.58 8.05474 196.279 7.96916 195.925 7.93386C195.654 7.90695 187.113 7.91008 187.103 7.93708ZM213.072 7.96159C213.067 7.9863 212.127 12.3224 210.983 17.5974C209.838 22.8724 208.898 27.2122 208.893 27.2414L208.884 27.2945H211.436H213.988L216.072 17.6505C217.219 12.3463 218.16 7.9863 218.163 7.96159L218.17 7.91666H215.626H213.081L213.072 7.96159ZM241.245 7.93542C240.402 8.02118 239.782 8.50169 239.342 9.41166C239.288 9.52375 231.868 26.9548 231.738 27.2741C231.732 27.2904 232.272 27.2945 234.408 27.2945H237.086L237.289 26.7186C237.401 26.4018 237.633 25.7439 237.805 25.2565L238.116 24.3704L241.383 24.3701C243.18 24.37 244.65 24.3717 244.65 24.3739C244.65 24.3762 244.791 25.0324 244.963 25.8322L245.276 27.2863L247.642 27.2905C249.891 27.2944 250.008 27.2932 250 27.266C249.99 27.2351 245.884 7.93832 245.884 7.92481C245.884 7.91027 241.392 7.92055 241.245 7.93542ZM243.064 16.779C243.495 18.7551 243.848 20.3855 243.848 20.4021C243.848 20.4312 243.777 20.4322 241.727 20.4322C240.038 20.4322 239.608 20.4281 239.613 20.4118C239.715 20.1172 242.272 13.1623 242.275 13.172C242.278 13.1796 242.633 14.8028 243.064 16.779Z" fill="#1B1D36"></path><path d="M271 3.61426H273.844V20.4179H271V3.61426Z" fill="#1B1D36"></path><path d="M275.653 3.61426H276.946V20.4179H275.653V3.61426Z" fill="#1B1D36"></path><path d="M279.273 3.61426H281.599V20.4179H279.273V3.61426Z" fill="#1B1D36"></path><path d="M283.667 3.61426H285.219V20.4179H283.667V3.61426Z" fill="#1B1D36"></path><path d="M287.287 3.61426H290.906V20.4179H287.287V3.61426Z" fill="#1B1D36"></path><path d="M307.451 3.61426H310.553V20.4179H307.451V3.61426Z" fill="#1B1D36"></path><path d="M293.491 3.61426H295.818V20.4179H293.491V3.61426Z" fill="#1B1D36"></path><path d="M312.621 3.61426H314.69V20.4179H312.621V3.61426Z" fill="#1B1D36"></path><path d="M298.144 3.61426H299.954V20.4179H298.144V3.61426Z" fill="#1B1D36"></path><path d="M316.758 3.61426H318.309V20.4179H316.758V3.61426Z" fill="#1B1D36"></path><path d="M302.798 3.61426H304.607V20.4179H302.798V3.61426Z" fill="#1B1D36"></path><path d="M320.636 3.61426H323.479V20.4179H320.636V3.61426Z" fill="#1B1D36"></path><path d="M276.578 27.1129C277.012 27.2538 277.357 27.4913 277.612 27.8252C277.867 28.1517 277.994 28.5598 277.994 29.0496C277.994 29.7248 277.732 30.248 277.207 30.619C276.682 30.9826 275.918 31.1644 274.913 31.1644H271V23.373H274.688C275.618 23.373 276.334 23.5548 276.836 23.9184C277.338 24.2745 277.59 24.768 277.59 25.3987C277.59 25.7846 277.5 26.1259 277.32 26.4228C277.14 26.7196 276.892 26.9496 276.578 27.1129ZM272.462 24.5083V26.6565H274.531C275.041 26.6565 275.431 26.5674 275.7 26.3894C275.978 26.2038 276.116 25.9367 276.116 25.588C276.116 25.2318 275.978 24.9646 275.7 24.7865C275.431 24.601 275.041 24.5083 274.531 24.5083H272.462ZM274.823 30.0291C275.955 30.0291 276.521 29.6543 276.521 28.9049C276.521 28.1554 275.955 27.7807 274.823 27.7807H272.462V30.0291H274.823Z" fill="#1B1D36"></path><path d="M284.356 31.2758C283.554 31.2758 282.831 31.1051 282.186 30.7638C281.541 30.415 281.035 29.9364 280.668 29.328C280.3 28.7121 280.117 28.0257 280.117 27.2688C280.117 26.5119 280.3 25.8292 280.668 25.2207C281.035 24.6048 281.541 24.1262 282.186 23.7849C282.831 23.4361 283.554 23.2617 284.356 23.2617C285.158 23.2617 285.882 23.4361 286.526 23.7849C287.171 24.1262 287.677 24.6011 288.045 25.2096C288.412 25.8181 288.596 26.5045 288.596 27.2688C288.596 28.0331 288.412 28.7195 288.045 29.328C287.677 29.9364 287.171 30.415 286.526 30.7638C285.882 31.1051 285.158 31.2758 284.356 31.2758ZM284.356 30.0069C284.881 30.0069 285.353 29.8919 285.773 29.6619C286.193 29.4244 286.523 29.0979 286.763 28.6824C287.002 28.2594 287.122 27.7882 287.122 27.2688C287.122 26.7494 287.002 26.2819 286.763 25.8663C286.523 25.4434 286.193 25.1169 285.773 24.8868C285.353 24.6494 284.881 24.5306 284.356 24.5306C283.831 24.5306 283.359 24.6494 282.939 24.8868C282.519 25.1169 282.19 25.4434 281.95 25.8663C281.71 26.2819 281.59 26.7494 281.59 27.2688C281.59 27.7882 281.71 28.2594 281.95 28.6824C282.19 29.0979 282.519 29.4244 282.939 29.6619C283.359 29.8919 283.831 30.0069 284.356 30.0069Z" fill="#1B1D36"></path><path d="M291.27 23.373H292.731V29.94H296.847V31.1644H291.27V23.373Z" fill="#1B1D36"></path><path d="M305.029 29.9512V31.1644H299.126V23.373H304.872V24.5862H300.588V26.612H304.388V27.803H300.588V29.9512H305.029Z" fill="#1B1D36"></path><path d="M309.38 24.5973H306.771V23.373H313.451V24.5973H310.842V31.1644H309.38V24.5973Z" fill="#1B1D36"></path><path d="M319.24 31.2758C318.438 31.2758 317.714 31.1051 317.07 30.7638C316.425 30.415 315.919 29.9364 315.551 29.328C315.184 28.7121 315 28.0257 315 27.2688C315 26.5119 315.184 25.8292 315.551 25.2207C315.919 24.6048 316.425 24.1262 317.07 23.7849C317.714 23.4361 318.438 23.2617 319.24 23.2617C320.042 23.2617 320.765 23.4361 321.41 23.7849C322.055 24.1262 322.561 24.6011 322.928 25.2096C323.296 25.8181 323.479 26.5045 323.479 27.2688C323.479 28.0331 323.296 28.7195 322.928 29.328C322.561 29.9364 322.055 30.415 321.41 30.7638C320.765 31.1051 320.042 31.2758 319.24 31.2758ZM319.24 30.0069C319.765 30.0069 320.237 29.8919 320.657 29.6619C321.077 29.4244 321.406 29.0979 321.646 28.6824C321.886 28.2594 322.006 27.7882 322.006 27.2688C322.006 26.7494 321.886 26.2819 321.646 25.8663C321.406 25.4434 321.077 25.1169 320.657 24.8868C320.237 24.6494 319.765 24.5306 319.24 24.5306C318.715 24.5306 318.243 24.6494 317.823 24.8868C317.403 25.1169 317.073 25.4434 316.833 25.8663C316.594 26.2819 316.474 26.7494 316.474 27.2688C316.474 27.7882 316.594 28.2594 316.833 28.6824C317.073 29.0979 317.403 29.4244 317.823 29.6619C318.243 29.8919 318.715 30.0069 319.24 30.0069Z" fill="#1B1D36"></path><path fill-rule="evenodd" clip-rule="evenodd" d="M347.487 7.13869C347.564 6.95311 347.723 6.77912 347.899 6.68919L348.041 6.61621L351.665 6.6268C354.871 6.63619 355.319 6.64321 355.559 6.68769C356.334 6.83145 356.838 6.9863 357.319 7.2279C358.451 7.7965 359.119 8.70049 359.381 10.0185C359.46 10.4113 359.49 11.3351 359.441 11.8362C359.305 13.2234 358.925 14.5431 358.388 15.4945C357.504 17.0614 356.136 18.0084 354.246 18.3606C353.649 18.472 353.332 18.492 351.864 18.5112L350.409 18.5303L350.257 18.6202C350.095 18.7164 349.964 18.8703 349.896 19.0436C349.873 19.1023 349.7 20.1983 349.511 21.4791L349.51 21.486C349.185 23.6953 349.143 23.9763 348.993 24.148C348.972 24.173 348.947 24.1957 348.92 24.2217L348.919 24.2223C348.862 24.2762 348.756 24.3492 348.685 24.3846C348.559 24.447 348.511 24.4491 347.014 24.4582C345.967 24.4645 345.44 24.457 345.368 24.4345C345.145 24.3647 345 24.1621 345 23.9207C345 23.842 345.547 20.0654 346.215 15.5284C347.101 9.50535 347.445 7.24123 347.487 7.13869ZM354.917 11.475C354.766 10.7924 354.326 10.4141 353.503 10.2601C353.305 10.2231 352.998 10.2062 352.349 10.1966C351.466 10.1835 351.465 10.1836 351.351 10.254L351.349 10.2548C351.322 10.2719 351.298 10.2868 351.276 10.3049C351.132 10.4256 351.093 10.6914 350.796 12.7263L350.794 12.7401C350.621 13.9182 350.481 14.8911 350.481 14.902C350.481 14.9426 352.653 14.8909 352.892 14.8446C353.541 14.7186 353.926 14.5286 354.261 14.169C354.509 13.9037 354.651 13.652 354.777 13.2592C354.942 12.7447 355.009 11.8925 354.917 11.475ZM361.759 13.2777C362.518 12.7752 363.396 12.4342 364.246 12.3121C364.62 12.2586 365.421 12.2485 365.833 12.2923C367.157 12.4331 367.988 12.8384 368.474 13.5802C368.56 13.7119 368.636 13.8148 368.641 13.8087C368.647 13.8026 368.679 13.6132 368.712 13.3877C368.787 12.882 368.837 12.7504 368.998 12.6368L369.119 12.5507L370.641 12.542C371.661 12.5363 372.2 12.5442 372.277 12.5661C372.339 12.5842 372.435 12.6463 372.489 12.7042C372.503 12.7196 372.517 12.7316 372.53 12.7426C372.541 12.7526 372.551 12.7618 372.561 12.7722C372.679 12.9011 372.635 13.2019 372.037 17.2566C371.984 17.617 371.926 18.0072 371.864 18.4295C371.257 22.5504 371.058 23.8378 371.012 23.943C370.934 24.1204 370.764 24.3006 370.597 24.3832C370.468 24.4471 370.428 24.449 369.06 24.4578C368.125 24.4638 367.618 24.4558 367.542 24.4341C367.39 24.3903 367.241 24.2347 367.196 24.0715C367.163 23.9561 367.167 23.8859 367.221 23.5228C367.256 23.2938 367.284 23.0863 367.284 23.0617C367.284 23.0361 367.22 23.0825 367.134 23.1707C366.514 23.8067 365.639 24.3102 364.72 24.5593C363.698 24.8363 362.469 24.7935 361.497 24.447C360.132 23.9607 359.131 22.7413 358.743 21.0929C358.346 19.4022 358.665 17.3146 359.568 15.7008C360.12 14.7142 360.911 13.8397 361.759 13.2777ZM374.045 13.0781C374.045 12.8662 374.213 12.6301 374.41 12.565C374.452 12.5509 375.186 12.542 376.042 12.545L377.596 12.5507L377.725 12.6226C377.886 12.7127 378.056 12.8842 378.124 13.024C378.152 13.083 378.551 14.4764 379.009 16.1205C379.468 17.7647 379.852 19.1274 379.862 19.1488C379.874 19.1724 380.657 17.9606 381.863 16.0545C382.952 14.3313 383.893 12.8675 383.954 12.8016C384.014 12.7357 384.123 12.6523 384.196 12.6162C384.326 12.5521 384.363 12.5505 385.884 12.5412C386.945 12.5347 387.472 12.5422 387.544 12.5649C387.671 12.6047 387.81 12.7243 387.867 12.8426C387.917 12.9458 387.922 13.2144 387.876 13.3078C387.815 13.4322 378.23 28.2618 378.156 28.3479C378.115 28.395 378.004 28.4742 377.91 28.5241L377.738 28.6146L376.11 28.6063L374.482 28.5979L374.378 28.5124C374.197 28.3654 374.126 28.1356 374.194 27.9257C374.216 27.8592 374.902 26.7944 375.718 25.5596C376.534 24.3248 377.211 23.2985 377.223 23.2788C377.234 23.2591 376.524 20.9776 375.644 18.2088C374.764 15.4399 374.045 13.1311 374.045 13.0781ZM368.027 17.0884C367.779 16.3141 367.187 15.7779 366.387 15.6025C366.157 15.5522 365.624 15.5203 365.415 15.5444C364.645 15.6334 363.882 16.0295 363.394 16.5927C362.787 17.2937 362.444 18.3108 362.5 19.2441C362.537 19.8635 362.731 20.3591 363.085 20.7406C363.41 21.0903 363.766 21.2908 364.26 21.4004C364.609 21.4781 365.241 21.4734 365.6 21.3905C366.785 21.1172 367.636 20.2997 368.006 19.0794C368.216 18.3842 368.224 17.7012 368.027 17.0884Z" fill="#1B1D36"></path><path d="M418.472 6.69331C418.394 6.74322 418.334 6.81409 418.296 6.89896C418.254 6.99531 417.924 9.18087 417.01 15.4334C416.333 20.0561 415.78 23.8834 415.78 23.9385C415.782 24.1661 415.937 24.3713 416.154 24.4339C416.229 24.4556 416.715 24.4635 417.6 24.4575L418.933 24.4485L419.084 24.3757C419.281 24.2806 419.474 24.0521 419.533 23.8436C419.582 23.6722 422 7.28047 422 7.12036C422 6.97032 421.884 6.76394 421.755 6.68574L421.643 6.61762L420.117 6.61741L418.591 6.61719L418.472 6.69331Z" fill="#1B1D36" fill-opacity="0.7"></path><path fill-rule="evenodd" clip-rule="evenodd" d="M407.251 12.2796C407.212 12.2856 407.064 12.306 406.923 12.3248C406.782 12.3436 406.519 12.3977 406.338 12.445C403.825 13.103 401.915 15.3474 401.418 18.2242C401.162 19.7063 401.312 21.0398 401.867 22.2226C402.673 23.9392 404.187 24.8043 406.253 24.729C406.751 24.7108 407.058 24.6638 407.522 24.5343C408.319 24.3119 409.145 23.8434 409.762 23.2635C409.895 23.1381 410.008 23.039 410.012 23.0434C410.016 23.0477 409.994 23.2214 409.962 23.4294C409.93 23.6374 409.904 23.8595 409.904 23.9229C409.904 24.1647 410.053 24.3691 410.277 24.4335C410.352 24.4552 410.856 24.4632 411.781 24.4572L413.171 24.4482L413.334 24.3626C413.539 24.2547 413.712 24.0481 413.77 23.8417C413.828 23.6369 415.353 13.2581 415.353 13.0716C415.353 12.8308 415.21 12.6324 414.988 12.5667C414.838 12.522 412.01 12.524 411.859 12.5688C411.797 12.5874 411.699 12.6526 411.641 12.7138C411.526 12.8367 411.506 12.91 411.422 13.5068L411.373 13.8534L411.236 13.6387C410.735 12.8543 409.898 12.4362 408.539 12.2917C408.265 12.2625 407.413 12.2545 407.251 12.2796ZM410.716 19.1194C411.237 17.4541 410.594 15.9817 409.188 15.6161C408.952 15.5548 408.331 15.5131 408.107 15.5436C406.512 15.7609 405.389 17.0086 405.228 18.7435C405.143 19.6527 405.434 20.4808 405.999 20.9389C406.577 21.4069 407.421 21.5752 408.299 21.3971C409.443 21.1651 410.341 20.3181 410.716 19.1194Z" fill="#1B1D36" fill-opacity="0.7"></path><path fill-rule="evenodd" clip-rule="evenodd" d="M390.599 6.70868C390.412 6.80853 390.31 6.91522 390.218 7.10931C390.175 7.19946 389.866 9.23148 388.931 15.5886C387.824 23.1204 387.705 23.9613 387.735 24.0695C387.778 24.2228 387.934 24.3904 388.073 24.4314C388.229 24.4778 391.265 24.4751 391.438 24.4284C391.607 24.383 391.8 24.1895 391.844 24.0213C391.861 23.9542 392.03 22.8422 392.218 21.5501C392.407 20.2581 392.581 19.1406 392.607 19.0667C392.664 18.8999 392.814 18.7196 392.983 18.6136C393.136 18.5176 393.083 18.5208 394.827 18.5025C396.139 18.4886 396.495 18.46 397.181 18.3133C397.987 18.1408 398.661 17.8721 399.263 17.483C400.765 16.5132 401.709 14.84 402.071 12.5045C402.382 10.4942 402.078 9.04181 401.133 8.03511C400.483 7.34328 399.6 6.92483 398.312 6.69977C397.945 6.63555 397.862 6.63397 394.356 6.62423L390.775 6.61426L390.599 6.70868ZM397.072 10.5759C396.913 10.4594 396.558 10.3208 396.26 10.2596C395.968 10.1999 394.243 10.1664 394.128 10.2183C394.034 10.2612 393.933 10.3641 393.881 10.4715C393.857 10.5196 393.694 11.5355 393.518 12.7291L393.197 14.8994L394.069 14.9085C394.953 14.9176 395.423 14.8895 395.808 14.8045C396.898 14.5637 397.468 13.8683 397.65 12.5559C397.783 11.6009 397.596 10.9617 397.072 10.5759Z" fill="#1B1D36" fill-opacity="0.7"></path></g></g><defs><clipPath id="clip0_82_11"><rect width="422" height="35" fill="white"></rect></clipPath></defs></svg>